<svg width="50" height="43" viewBox="0 0 50 43" stroke="lightgray" xmlns="http://www.w3.org/2000/svg" xmlns:xlink="http://www.w3.org/1999/xlink">
<path d="M33.5598 1C35.6906 1 37.6615 2.13005 38.7379 3.96892L47.2257 18.4689C48.3216 20.3411 48.3216 22.6589 47.2257 24.5311L38.7379 39.0311C37.6615 40.87 35.6906 42 33.5598 42H16.4402C14.3094 42 12.3385 40.8699 11.2621 39.0311L2.77429 24.5311C1.6784 22.6589 1.6784 20.3411 2.77429 18.4689L11.2621 3.96892C12.3385 2.13005 14.3094 1 16.4402 1L33.5598 1Z"/>
<path d="M39.1694 3.71634C38.0033 1.72422 35.8681 0.5 33.5598 0.5L16.4402 0.5C14.1319 0.5 11.9967 1.72422 10.8306 3.71633L2.34278 18.2163C1.15557 20.2445 1.15557 22.7555 2.34278 24.7837L10.8306 39.2837C11.9967 41.2758 14.1319 42.5 16.4402 42.5H33.5598C35.8681 42.5 38.0033 41.2758 39.1694 39.2837L47.6572 24.7837C48.8444 22.7555 48.8444 20.2445 47.6572 18.2163L39.1694 3.71634Z"/>
</svg>
