<svg width="16" height="10" viewBox="0 0 16 10" fill="none" xmlns="http://www.w3.org/2000/svg">
<path d="M5.07788 0.22972C5.00226 0.137831 5.06812 0 5.18764 0H7.87028C7.912 0 7.9516 0.0182495 7.97853 0.0498853L12.1107 4.90418C12.1553 4.95662 12.1553 5.03338 12.1107 5.08582L7.97853 9.94012C7.9516 9.97175 7.912 9.99 7.87028 9.99H5.18764C5.06812 9.99 5.00226 9.85217 5.07788 9.76028L8.92581 5.08402C8.96843 5.03222 8.96843 4.95779 8.92581 4.90599L5.07788 0.22972Z" fill="#81EDBA"/>
<path fill-rule="evenodd" clip-rule="evenodd" d="M15.858 0.000423195C15.9775 0.000423195 16.0434 0.138254 15.9678 0.230143L12.5865 4.33934L11.0307 2.44255L13.0671 0.0503085C13.094 0.0186727 13.1336 0.000423195 13.1754 0.000423195H15.858ZM10.9931 7.50407L13.0671 9.94054C13.094 9.97218 13.1336 9.99043 13.1754 9.99043H15.858C15.9775 9.99043 16.0434 9.8526 15.9678 9.76071L12.5667 5.62745L10.9931 7.50407Z" fill="#81EDBA"/>
<path d="M1.70018 0C1.58276 0 1.48758 0.094493 1.48758 0.211056V0.924589H0.212393C0.0950915 0.924589 0 1.01909 0 1.13565C0 1.25222 0.0950915 1.34672 0.212393 1.34672H1.48758V2.05012C1.48758 2.16669 1.58276 2.26118 1.70018 2.26118H5.12385C5.30737 2.26118 5.40467 2.04585 5.28263 1.90978L3.64215 0.0806223C3.60998 0.0447459 3.56671 0.0211167 3.51973 0.0130212C3.49644 0.00449971 3.47159 0 3.44621 0H1.70018Z" fill="#81EDBA"/>
<path d="M2.47991 4.02002C2.47991 3.90345 2.57509 3.80896 2.69251 3.80896H6.56189C6.62542 3.80896 6.68562 3.83716 6.726 3.88585L7.54304 4.87078C7.60769 4.94871 7.60769 5.06118 7.54304 5.13912L6.726 6.12405C6.68562 6.17273 6.62542 6.20093 6.56189 6.20093H2.69251C2.57509 6.20093 2.47991 6.10644 2.47991 5.98987V5.21603H1.20379C1.08649 5.21603 0.991398 5.12154 0.991398 5.00497C0.991398 4.8884 1.08649 4.79391 1.20379 4.79391H2.47991V4.02002Z" fill="#81EDBA"/>
<path d="M1.69878 10C1.58137 10 1.48619 9.90551 1.48619 9.78894V9.08554H0.212393C0.0950915 9.08554 0 8.99104 0 8.87447C0 8.75791 0.0950915 8.66341 0.212393 8.66341H1.48619V7.95979C1.48619 7.84323 1.58137 7.74873 1.69878 7.74873H5.05701C5.23966 7.74873 5.33728 7.9623 5.21701 8.09877L3.60481 9.92793C3.56444 9.97373 3.50612 10 3.44482 10H1.69878Z" fill="#81EDBA"/>
</svg>
