<svg width="24" height="24" viewBox="0 0 24 24" fill="none" xmlns="http://www.w3.org/2000/svg">
<g id="Group 20965">
<circle id="Ellipse 518" cx="12" cy="12" r="11.75" fill="white" fill-opacity="0.1" stroke="url(#paint0_linear_1_389)" stroke-width="0.5"/>
<g id="Vector">
<path d="M9.4717 8.1978C9.40512 8.11868 9.46311 8 9.56836 8H11.9308C11.9675 8 12.0024 8.01571 12.0261 8.04295L15.665 12.2228C15.7043 12.2679 15.7043 12.334 15.665 12.3792L12.0261 16.559C12.0024 16.5862 11.9675 16.6019 11.9308 16.6019H9.56836C9.46311 16.6019 9.40512 16.4833 9.4717 16.4041L12.8603 12.3776C12.8978 12.333 12.8978 12.2689 12.8603 12.2243L9.4717 8.1978Z" fill="url(#paint1_linear_1_389)"/>
<path fill-rule="evenodd" clip-rule="evenodd" d="M18.9649 8.00036C19.0702 8.00036 19.1282 8.11904 19.0616 8.19817L16.0839 11.7364L14.7139 10.1032L16.5072 8.04332C16.5309 8.01608 16.5658 8.00036 16.6025 8.00036H18.9649ZM14.6808 14.4614L16.5072 16.5594C16.5309 16.5866 16.5658 16.6023 16.6025 16.6023H18.9649C19.0702 16.6023 19.1282 16.4836 19.0616 16.4045L16.0665 12.8455L14.6808 14.4614Z" fill="url(#paint2_linear_1_389)"/>
<path d="M6.49722 8C6.39382 8 6.31 8.08136 6.31 8.18173V8.79612H5.18704C5.08374 8.79612 5 8.87749 5 8.97786C5 9.07823 5.08374 9.1596 5.18704 9.1596H6.31V9.76527C6.31 9.86564 6.39382 9.947 6.49722 9.947H9.51219C9.6738 9.947 9.75948 9.76159 9.65202 9.64442L8.20737 8.06942C8.17904 8.03853 8.14093 8.01818 8.09956 8.01121C8.07906 8.00387 8.05716 8 8.03482 8H6.49722Z" fill="url(#paint3_linear_1_389)"/>
<path d="M7.18387 11.4615C7.18387 11.3611 7.26769 11.2797 7.37109 11.2797H10.7786C10.8345 11.2797 10.8875 11.304 10.9231 11.3459L11.6426 12.194C11.6995 12.2611 11.6995 12.358 11.6426 12.4251L10.9231 13.2731C10.8875 13.3151 10.8345 13.3393 10.7786 13.3393H7.37109C7.26769 13.3393 7.18387 13.258 7.18387 13.1576V12.4913H6.06009C5.95679 12.4913 5.87305 12.4099 5.87305 12.3096C5.87305 12.2092 5.95679 12.1278 6.06009 12.1278H7.18387V11.4615Z" fill="url(#paint4_linear_1_389)"/>
<path d="M6.49599 16.6106C6.39259 16.6106 6.30877 16.5292 6.30877 16.4288V15.8232H5.18704C5.08374 15.8232 5 15.7418 5 15.6414C5 15.541 5.08374 15.4597 5.18704 15.4597H6.30877V14.8538C6.30877 14.7535 6.39259 14.6721 6.49599 14.6721H9.45333C9.61418 14.6721 9.70015 14.856 9.59423 14.9735L8.17449 16.5485C8.13894 16.5879 8.08758 16.6106 8.03359 16.6106H6.49599Z" fill="url(#paint5_linear_1_389)"/>
</g>
</g>
<defs>
<linearGradient id="paint0_linear_1_389" x1="20.25" y1="1.5" x2="3" y2="22.125" gradientUnits="userSpaceOnUse">
<stop stop-color="#04E08A"/>
<stop offset="1" stop-color="#05CEF2"/>
</linearGradient>
<linearGradient id="paint1_linear_1_389" x1="8.56599" y1="8" x2="17.3151" y2="15.1675" gradientUnits="userSpaceOnUse">
<stop stop-color="#81EDB9"/>
<stop offset="1" stop-color="#C2F0ED"/>
</linearGradient>
<linearGradient id="paint2_linear_1_389" x1="8.56599" y1="8" x2="17.3151" y2="15.1675" gradientUnits="userSpaceOnUse">
<stop stop-color="#81EDB9"/>
<stop offset="1" stop-color="#C2F0ED"/>
</linearGradient>
<linearGradient id="paint3_linear_1_389" x1="8.56599" y1="8" x2="17.3151" y2="15.1675" gradientUnits="userSpaceOnUse">
<stop stop-color="#81EDB9"/>
<stop offset="1" stop-color="#C2F0ED"/>
</linearGradient>
<linearGradient id="paint4_linear_1_389" x1="8.56599" y1="8" x2="17.3151" y2="15.1675" gradientUnits="userSpaceOnUse">
<stop stop-color="#81EDB9"/>
<stop offset="1" stop-color="#C2F0ED"/>
</linearGradient>
<linearGradient id="paint5_linear_1_389" x1="8.56599" y1="8" x2="17.3151" y2="15.1675" gradientUnits="userSpaceOnUse">
<stop stop-color="#81EDB9"/>
<stop offset="1" stop-color="#C2F0ED"/>
</linearGradient>
</defs>
</svg>
